<?xml version="1.0" encoding="utf-8"?>
<!-- Generator: Adobe Illustrator 23.0.1, SVG Export Plug-In . SVG Version: 6.00 Build 0)  -->
<svg version="1.1" id="Warstwa_1" xmlns="http://www.w3.org/2000/svg" xmlns:xlink="http://www.w3.org/1999/xlink" x="0px" y="0px"
	 viewBox="0 0 148 193" style="enable-background:new 0 0 148 193;" xml:space="preserve">
<style type="text/css">
	.st0{fill:#00D2D6;}
	.st1{fill:#FFFFFF;}
	.st2{fill:#656565;}
</style>
<g id="black">
</g>
<g>
	<g>
		<g>
			<path class="st0" d="M73.6,131.2c-35,0.1-63.7-28.5-63.5-63.8C10.3,32.5,38.8,4,74.1,4.2c34.8,0.2,63.3,28.7,63.1,64
				C136.9,102.9,108.6,131.3,73.6,131.2z M81.5,61.7c5.5,0.8,11,1.5,16.5,2.3c0.5-1.7,0.9-3.1,1.3-4.7c-5.7-0.8-11.2-1.7-17.1-2.5
				c2-7,3.7-13.7,5.8-20.2c0.7-2.2,2.3-4.2,3.9-5.9c2.1-2.2,5-1.7,6.8,0.7c0.7,1,1.4,2.1,2.3,2.9c1.1,1.1,2.8,1.6,4,0.6
				c0.8-0.7,0.7-2.4,0.8-3.6c0-0.5-0.6-1.1-1-1.6c-2-2.3-4.7-3.1-7.5-3.2c-6.3-0.3-10.9,3-14.5,7.8c-3.5,4.8-5.1,10.5-6.8,16.2
				c-0.5,1.6-0.9,3.3-1.4,5.1c-6.2-0.9-12.1-1.7-18.2-2.6c-0.2,1.6-0.4,3.2-0.6,4.8c6,0.9,11.8,1.8,17.8,2.7
				c-0.8,3.4-1.5,6.5-2.3,9.7c-5.8-0.8-11.4-1.6-17-2.4c-0.2,1.8-0.4,3.2-0.6,4.8c5.6,0.9,11,1.7,16.5,2.5c0,0.6,0.1,1,0,1.3
				c-1.7,7.4-3.4,14.8-5.3,22.2c-0.9,3.5-2.4,6.9-5.3,9.3c-2.4,2-5,1.7-6.8-0.8c-0.8-1.1-1.5-2.5-2.6-3.3c-0.8-0.6-2.5-0.9-3.1-0.5
				c-0.9,0.7-1.5,2.2-1.4,3.3c0.1,1,1,2.2,1.9,2.8c3,2.3,6.5,2.6,10,1.9c5.9-1.2,10.1-4.9,12.7-10.1c2-4.1,3.6-8.5,5-12.9
				c1.3-4,2.2-8,3.3-12.2c5.8,0.8,11.5,1.7,17.3,2.5c0.5-1.7,0.9-3.2,1.4-4.8c-6.1-0.9-11.9-1.7-17.7-2.6
				C80.2,68.1,80.8,65.1,81.5,61.7z"/>
			<path class="st1" d="M81.5,61.7c-0.7,3.3-1.3,6.4-2,9.8c5.9,0.9,11.7,1.7,17.7,2.6c-0.5,1.6-0.9,3.1-1.4,4.8
				c-5.8-0.8-11.5-1.7-17.3-2.5c-1.1,4.2-2,8.3-3.3,12.2c-1.4,4.4-3,8.7-5,12.9c-2.6,5.2-6.8,8.9-12.7,10.1c-3.5,0.7-7,0.4-10-1.9
				c-0.9-0.7-1.8-1.8-1.9-2.8c-0.1-1.1,0.5-2.7,1.4-3.3c0.6-0.5,2.3-0.1,3.1,0.5c1.1,0.8,1.8,2.1,2.6,3.3c1.8,2.5,4.4,2.9,6.8,0.8
				c2.9-2.5,4.4-5.8,5.3-9.3c1.9-7.3,3.6-14.8,5.3-22.2c0.1-0.3,0-0.7,0-1.3c-5.4-0.8-10.8-1.7-16.5-2.5c0.2-1.6,0.4-3,0.6-4.8
				c5.6,0.8,11.1,1.6,17,2.4c0.8-3.2,1.5-6.4,2.3-9.7c-6-0.9-11.7-1.8-17.8-2.7c0.2-1.6,0.4-3.2,0.6-4.8c6.1,0.9,12,1.7,18.2,2.6
				c0.5-1.8,0.9-3.5,1.4-5.1c1.7-5.6,3.2-11.3,6.8-16.2c3.6-4.9,8.1-8.1,14.5-7.8c2.8,0.1,5.5,0.9,7.5,3.2c0.4,0.5,1,1.1,1,1.6
				c-0.1,1.2,0,2.9-0.8,3.6c-1.1,1.1-2.8,0.5-4-0.6c-0.9-0.9-1.6-1.9-2.3-2.9c-1.6-2.7-4.5-3.2-6.6-1c-1.6,1.7-3.2,3.7-3.9,5.9
				c-2.1,6.6-3.8,13.2-5.8,20.2c5.9,0.9,11.4,1.7,17.1,2.5c-0.5,1.6-0.9,3.1-1.3,4.7C92.5,63.3,87.1,62.5,81.5,61.7z"/>
		</g>
		<g>
			<path class="st2" d="M65,169.2c-4.4,0-8.7,0-12.9,0c-0.1,0.2-0.1,0.3-0.1,0.4c0,3.4,2,7.1,7.1,6.6c1.5-0.2,3-0.5,4.3-1.2
				c0.2-0.1,0.4-0.2,0.7-0.3c0.2,0.7,0.3,1.4,0.4,2.1c-0.2,0.2-0.5,0.3-0.7,0.4c-2.5,1.3-5.2,1.7-8,1.2c-3-0.5-5.1-2.3-6.1-5.2
				c-1.2-3.4-1.2-6.8,0.5-10.1c1.7-3.5,5.4-5.2,9.1-4.3c1.4,0.3,2.6,1,3.5,2.1C64.9,163.3,65.2,166.1,65,169.2z M52,166.9
				c1,0.2,9.5,0.2,10.2,0c0.1-0.9-0.1-1.8-0.3-2.6c-1.3-4-6-3.9-7.9-1.8C52.6,163.7,52.1,165.2,52,166.9z"/>
			<path class="st2" d="M94.2,178.6c-3.9,0-6.8-1.9-8.1-5.6c-1.2-3.2-1.1-6.5,0.4-9.6c1.8-3.8,5.3-5,8.9-4.6c4.9,0.5,7.1,4.3,7.5,8
				c0.2,1.8,0.2,3.6-0.3,5.3C101.5,176.3,98.5,178.6,94.2,178.6z M88.3,168.6c0,1.8,0.2,3.4,1,4.8c1.1,2.1,2.9,3,5.2,2.9
				c2.3,0,4-1.1,4.9-3.2c1.2-2.9,1.2-5.9,0-8.8c-0.4-1.1-1.2-2-2.2-2.6c-3-1.6-6.6-0.4-8,2.7C88.5,165.8,88.3,167.2,88.3,168.6z"/>
			<path class="st2" d="M27.2,152.5c0,0.9,0,1.6,0,2.4c-1.9,0-3.8,0-5.6,0s-5.5,0-5.5,0l-0.1,9.3c0,0,6.9,0,10.5,0
				c0,0.9,0,1.6,0,2.3c-0.3,0-0.7,0.1-1,0.1c-2.8,0-5.6,0-8.5,0c-0.3,0-0.7,0-1.2,0.1c0,3.8,0,11.4,0,11.4h-2.8c0,0-0.3-24.7,0-25.7
				C17.9,152.5,22.6,152.5,27.2,152.5z"/>
			<path class="st2" d="M129.3,178.2c0.9,0,1.7,0,2.6,0c0-0.3,0.1-8.2,0.1-11.9c0-1.3-0.1-2.6-0.5-3.9c-0.6-1.7-1.8-2.9-3.6-3.4
				c-3.1-0.7-5.8,0-8.1,2.1c-0.2,0.2-0.4,0.4-0.7,0.7c-0.2-1-0.3-1.8-0.5-2.6c-0.8,0-1.5,0-2.2,0c0,6.4,0,12.7,0,19
				c0.9,0,1.8,0,2.7,0c0-0.4,0.1-8.6,0.2-12.3c0-1,0.4-1.9,1-2.7c1.3-1.6,3.1-2.2,5.1-2.1c2.6,0.1,3.6,1.4,3.8,3.9L129.3,178.2z"/>
			<path class="st2" d="M82.4,160c-0.3,0.8-0.5,1.4-0.7,2.1c-0.9-0.3-1.7-0.6-2.6-0.8c-1-0.2-2.1-0.3-3.2,0c-2,0.5-3.3,1.7-4,3.6
				c-0.9,2.5-1,5.1,0,7.6c1,2.8,3.6,4.3,6.7,3.7c1.1-0.2,2.1-0.6,3.3-0.9c0.1,0.7,0.2,1.4,0.3,2c-0.7,0.7-1.6,0.9-2.4,1.1
				c-1.4,0.3-2.9,0.4-4.3,0.2c-2.9-0.4-5-2-6.2-4.7c-1.5-3.4-1.5-6.9,0-10.3c1.8-3.9,5.2-5.2,9-4.8C79.4,158.9,81.9,159.8,82.4,160z
				"/>
			<path class="st2" d="M42.6,171.7c0,0.9,0.1,1.7,0.2,2.5c0.2,1.3,0.9,1.9,2.2,2c0.4,0,0.9,0,1.3,0c0.4,0,0.8-0.1,1.4-0.1
				c0,0.7,0.1,1.4,0.2,2.2c-2,0.3-3.9,0.6-5.8-0.3c-0.9-0.4-2.2-1.2-2.2-5.5c-0.1-3.9,0-7.8,0-11.7c0-2.6,0-5.3,0-7.9
				c0-0.3,0-0.7,0-1.2c0.9,0,1.8-0.1,2.7-0.2L42.6,171.7z"/>
			<path class="st2" d="M31.5,159.2c0,0,1.7,0,2.6,0c0,6.4,0,12.6,0,19c-0.9,0-2.6,0-2.6,0L31.5,159.2z"/>
			<path class="st2" d="M107.9,159.3c0.9,0,1.7,0,2.7,0c0,6.3,0,12.6,0,19c-0.9,0-1.7,0-2.7,0C107.9,171.9,107.9,165.6,107.9,159.3z
				"/>
			<path class="st2" d="M31.4,155.4c0-1.1,0-2.1,0-3.2c0.9,0,2.6,0,2.6,0l0,3.2C34.1,155.4,32.4,155.4,31.4,155.4z"/>
			<path class="st2" d="M107.9,155.4c0-1,0-2.1,0-3.1c0.9,0,1.7,0,2.6,0c0,1,0,2,0,3.1C109.7,155.4,108.8,155.4,107.9,155.4z"/>
		</g>
	</g>
</g>
</svg>
