<?xml version="1.0" encoding="UTF-8"?>
<svg width="130px" height="130px" viewBox="0 0 130 130" version="1.1" xmlns="http://www.w3.org/2000/svg" xmlns:xlink="http://www.w3.org/1999/xlink">
    <!-- Generator: Sketch 52.2 (67145) - http://www.bohemiancoding.com/sketch -->
    <title>logo-nopadding</title>
    <desc>Created with Sketch.</desc>
    <g id="Page-1" stroke="none" stroke-width="1" fill="none" fill-rule="evenodd">
        <g id="logo-nopadding" transform="translate(-9.000000, -9.000000)">
            <circle id="Oval" fill="#42C2CB" transform="translate(74.000005, 74.000008) rotate(-81.608890) translate(-74.000005, -74.000008) " cx="74.0000049" cy="74.000008" r="64.56954"></circle>
            <path d="M102.96366,35.26625 C89.90934,27.00941 80.57261,45.18764 80.35337,45.73878 C78.02604,50.27778 76.11051,57.22878 74.92155,62.41072 L57.87255,59.89583 L57.20507,64.48146 L73.98876,66.95723 C73.52386,69.35506 73.28631,70.89687 73.28631,70.89687 L72.46008,75.9504 L72.5072,75.9574 C72.48974,76.05597 72.47326,76.15949 72.45569,76.2574 L55.796,73.79988 L55.1699,78.39168 L71.63175,80.8199 C67.30466,102.66042 64.10389,109.2469 60.87995,112.86144 C60.22431,113.63482 55.60157,116.72832 53.27582,111.19475 C51.65119,107.32939 48.56745,107.86144 48.56745,107.86144 C47.69764,107.77819 43.65302,110.39196 49.99055,114.40044 C63.04487,122.65721 72.3816,104.47899 72.6009,103.92784 C74.92817,99.3889 78.03074,87.12116 79.21971,81.93921 L96.33281,84.4635 L97.00023,79.87787 L80.15245,77.3927 C80.61735,74.99487 80.8549,73.453 80.8549,73.453 L81.68113,68.39947 L81.63401,68.39247 C81.65147,68.2939 81.66795,68.19038 81.68552,68.09247 L98.34525,70.55 L98.97135,65.95826 L82.5095,63.53 C86.83659,41.68948 88.85032,40.41971 92.07426,36.80527 C92.7299,36.03183 97.35264,32.93839 99.67839,38.4719 C101.30302,42.33726 104.38676,41.80527 104.38676,41.80527 C105.25657,41.88844 109.30119,39.27467 102.96366,35.26625 Z" id="Path" fill="#FFFFFF"></path>
        </g>
    </g>
</svg>